<?xml version="1.0" encoding="iso-8859-1"?>
<!-- Uploaded to: SVG Repo, www.svgrepo.com, Generator: SVG Repo Mixer Tools -->
<svg height="800px" width="800px" version="1.1" id="Layer_1" xmlns="http://www.w3.org/2000/svg" xmlns:xlink="http://www.w3.org/1999/xlink" 
	 viewBox="0 0 512 512" xml:space="preserve">
<g>
	<path style="fill:#E07188;" d="M512,131.88c0-64.163-52.201-116.364-116.364-116.364H23.273C10.418,15.516,0,25.934,0,38.789
		v263.754c0,55.608,45.239,100.848,100.848,100.848h217.212c55.606,0,100.848-45.241,100.848-100.848V245.9
		C471.957,235.091,512,188.075,512,131.88z M418.909,197.695V66.066c27.088,9.607,46.545,35.475,46.545,65.814
		C465.455,162.219,445.997,188.088,418.909,197.695z"/>
	<path style="fill:#E07188;" d="M395.636,449.939H23.273C10.418,449.939,0,460.359,0,473.211c0,12.853,10.418,23.273,23.273,23.273
		h372.364c12.851,0,23.273-10.42,23.273-23.273C418.909,460.359,408.488,449.939,395.636,449.939z"/>
</g>
<path style="fill:#D6E5F6;" d="M186.182,139.637h-23.273V38.789c0-12.854-10.422-23.273-23.273-23.273
	c-12.854,0-23.273,10.418-23.273,23.273v100.848H93.091c-12.854,0-23.273,10.42-23.273,23.273v93.088
	c0,12.853,10.418,23.273,23.273,23.273h93.091c12.851,0,23.273-10.42,23.273-23.273V162.91
	C209.455,150.057,199.033,139.637,186.182,139.637z"/>
<g>
	<path style="fill:#DC4161;" d="M395.636,15.517H209.455v387.876h108.606c55.606,0,100.848-45.241,100.848-100.848v-56.643
		C471.957,235.091,512,188.075,512,131.88C512,67.717,459.799,15.517,395.636,15.517z M418.909,197.695V66.066
		c27.088,9.607,46.545,35.475,46.545,65.814C465.455,162.219,445.997,188.088,418.909,197.695z"/>
	<path style="fill:#DC4161;" d="M395.636,496.484c12.851,0,23.273-10.42,23.273-23.273c0-12.853-10.422-23.273-23.273-23.273
		H209.455v46.545H395.636z"/>
</g>
</svg>